<?xml version="1.0" standalone="no"?>
<!DOCTYPE svg PUBLIC "-//W3C//DTD SVG 20010904//EN"
 "http://www.w3.org/TR/2001/REC-SVG-20010904/DTD/svg10.dtd">
<svg version="1.0" xmlns="http://www.w3.org/2000/svg"
 width="638.000000pt" height="638.000000pt" viewBox="0 0 638.000000 638.000000"
 preserveAspectRatio="xMidYMid meet">
<metadata>
Created by potrace 1.16, written by Peter Selinger 2001-2019
</metadata>
<g transform="translate(0.000000,638.000000) scale(0.100000,-0.100000)"
fill="#000000" stroke="none">
<path d="M0 3190 l0 -3190 3190 0 3190 0 0 3190 0 3190 -2010 0 -2009 0 18
-32 c11 -18 22 -44 26 -58 4 -14 28 -70 54 -125 26 -55 56 -126 66 -158 16
-54 16 -60 1 -75 -15 -15 -17 -15 -30 3 -8 11 -18 39 -22 62 -7 49 -30 75 -45
52 -7 -12 -10 -12 -18 0 -7 11 -9 11 -13 0 -6 -19 2 -50 12 -44 4 3 10 -4 13
-16 7 -25 -14 -35 -43 -19 -12 6 -29 9 -37 6 -14 -6 -13 -10 6 -29 31 -34 28
-51 -9 -43 -16 3 -43 3 -60 0 -25 -6 -29 -10 -24 -29 4 -18 1 -25 -16 -30 -20
-6 -21 -7 -3 -20 14 -10 15 -17 6 -25 -17 -18 -266 -8 -320 12 -34 12 -46 13
-59 3 -12 -8 -14 -14 -6 -19 7 -4 12 -18 12 -32 0 -14 5 -35 11 -46 10 -18 9
-20 -6 -14 -11 4 -22 0 -30 -11 -12 -17 -14 -17 -32 -1 -25 23 -50 9 -34 -20
16 -29 15 -31 -19 -30 -19 1 -30 6 -30 15 0 8 -9 17 -20 20 -26 7 -32 29 -32
121 0 91 17 186 38 202 7 7 14 29 14 50 0 39 32 171 77 313 5 16 -42 17 -901
17 l-906 0 0 -3190z m4190 3143 c19 -25 21 -34 14 -103 -4 -41 -11 -88 -16
-105 -6 -16 -14 -48 -18 -70 -20 -93 -33 -141 -41 -149 -5 -6 -9 -18 -9 -28 0
-10 -4 -26 -9 -36 -46 -86 -71 -155 -62 -166 22 -27 -33 -202 -74 -236 -13
-11 -15 -8 -15 22 0 18 6 42 13 53 16 26 15 88 -2 109 -15 18 -61 22 -61 6 0
-6 7 -13 15 -16 11 -5 12 -11 5 -24 -6 -11 -6 -20 0 -22 20 -7 4 -207 -19
-230 -4 -5 -17 26 -29 68 -20 66 -21 78 -8 88 15 11 17 68 3 82 -4 4 -7 15 -7
25 0 9 -7 19 -15 23 -8 3 -15 10 -15 16 0 18 -61 64 -85 66 -37 2 -57 13 -51
29 4 12 0 14 -20 11 -22 -4 -35 4 -73 46 -25 28 -49 59 -53 69 -4 11 -20 24
-35 30 -16 7 -23 13 -15 16 6 3 12 10 12 16 0 7 8 17 19 24 10 6 21 21 24 32
8 33 -26 26 -46 -9 -10 -16 -22 -30 -28 -30 -5 0 -9 -7 -9 -15 0 -20 -6 -19
-41 6 -29 20 -38 39 -19 39 6 0 21 9 33 21 44 42 192 149 206 149 5 0 41 22
82 49 96 63 210 121 236 121 12 0 28 7 37 15 8 8 26 15 41 15 14 0 24 4 21 8
-3 5 17 9 43 11 43 2 52 -2 71 -26z m-905 -473 c99 -42 217 -198 195 -256 -16
-42 -12 -61 15 -68 21 -5 25 -12 25 -41 0 -31 -3 -35 -33 -40 -83 -16 -153 13
-142 58 8 30 -13 48 -27 23 -5 -10 -21 -16 -41 -16 -25 1 -36 8 -52 33 -34 53
-145 62 -145 11 0 -23 -28 -42 -55 -36 -36 6 -40 24 -20 74 9 23 20 60 25 82
39 177 32 161 74 164 31 3 44 -2 67 -24 16 -15 29 -34 29 -41 0 -7 4 -13 9
-13 5 0 3 18 -5 40 -25 71 -2 85 81 50z m-971 -56 c14 -5 13 -10 -8 -29 -14
-13 -34 -26 -44 -30 -11 -3 -30 -15 -43 -26 -13 -11 -36 -23 -51 -26 -16 -3
-28 -9 -28 -14 0 -5 -8 -9 -18 -9 -9 0 -29 -11 -43 -24 -28 -26 -115 -60 -130
-51 -5 4 -5 14 1 26 6 11 14 17 19 15 4 -3 15 4 25 15 12 15 24 19 41 15 36
-9 95 32 92 64 -2 28 15 36 106 45 40 5 57 11 57 21 0 16 2 16 24 8z m1472
-187 c14 -42 -21 -31 -53 16 -13 18 -23 36 -23 40 0 13 70 -39 76 -56z m34
-42 c-7 -8 -17 -15 -22 -15 -11 0 14 29 26 30 5 0 3 -7 -4 -15z m17 -31 c-3
-3 -12 -4 -19 -1 -8 3 -5 6 6 6 11 1 17 -2 13 -5z m-1186 -110 c10 -13 10 -17
-2 -25 -19 -12 -29 -11 -29 2 0 14 -119 7 -175 -10 -22 -7 -61 -17 -87 -23
-51 -11 -63 -32 -25 -42 14 -3 28 -21 41 -51 41 -101 159 -189 222 -165 13 5
41 8 61 5 90 -11 56 -55 -41 -55 -47 1 -73 7 -113 29 -96 52 -179 144 -204
229 -11 39 -11 45 7 62 50 48 313 82 345 44z m-168 -140 c-3 -8 -9 -14 -13
-14 -12 0 -6 -28 8 -42 14 -14 16 -28 4 -28 -5 0 -13 10 -19 23 -49 101 -49
111 -8 119 21 4 39 -31 28 -58z m-698 10 c9 -19 14 -43 10 -52 -5 -12 -12 -4
-26 33 -10 28 -19 54 -19 58 0 16 18 -4 35 -39z m900 7 c3 -10 6 -35 7 -55 2
-46 -23 -72 -77 -82 l-40 -7 24 22 c13 11 27 21 31 21 4 0 15 12 25 26 16 25
16 29 1 61 -9 18 -16 38 -16 44 0 16 38 -9 45 -30z m92 22 c4 -10 11 -21 17
-25 9 -6 12 -60 6 -133 -1 -19 -2 -19 -15 -2 -7 11 -17 37 -20 59 -4 23 -13
56 -21 74 -11 25 -11 34 -1 37 21 9 28 7 34 -10z m-233 -48 c5 -22 4 -26 -4
-15 -5 8 -10 24 -10 34 0 26 6 18 14 -19z m-829 -15 c3 -5 1 -10 -4 -10 -6 0
-11 5 -11 10 0 6 2 10 4 10 3 0 8 -4 11 -10z m1935 -119 c0 -35 -40 -76 -81
-85 -44 -8 -109 4 -109 20 0 8 -4 14 -9 14 -13 0 -24 37 -16 50 6 9 57 -19 75
-40 3 -3 20 -7 38 -8 27 -2 32 1 33 20 1 22 1 22 9 -2 l8 -25 1 28 c1 15 -3
27 -9 27 -11 0 -14 53 -4 63 4 4 20 -3 35 -14 20 -14 29 -29 29 -48z m-420 4
c21 0 32 -125 12 -125 -18 0 -82 64 -82 82 0 23 30 59 43 51 7 -4 19 -8 27 -8z
m490 -19 c0 -3 -4 -8 -10 -11 -5 -3 -10 -1 -10 4 0 6 5 11 10 11 6 0 10 -2 10
-4z m-36 -71 c-9 -15 -36 -39 -60 -56 -35 -24 -52 -29 -101 -29 -56 1 -105 21
-89 37 4 4 44 6 91 4 l83 -3 36 39 c19 21 36 45 36 53 0 12 3 12 11 -2 7 -13
5 -25 -7 -43z m-473 -92 c49 -41 67 -68 74 -110 10 -65 1 -83 -43 -83 -29 0
-147 23 -229 46 -7 2 -11 11 -9 21 2 10 7 37 11 61 4 24 13 42 21 42 7 0 17 6
21 14 11 18 31 24 85 25 32 1 55 -5 69 -16z m398 -33 c24 -6 39 -6 47 1 7 6
23 8 34 4 20 -6 20 -8 6 -24 -9 -10 -16 -23 -16 -29 0 -7 -11 -12 -24 -12 -13
0 -26 -7 -30 -15 -3 -8 -16 -15 -29 -15 -14 0 -30 7 -37 15 -7 8 -17 15 -23
15 -9 0 -57 46 -57 55 0 2 21 6 48 8 26 2 47 4 47 5 0 1 16 -2 34 -8z m-667
-75 c19 -14 25 -26 22 -41 -4 -15 6 -37 31 -69 46 -61 75 -118 75 -148 0 -34
-27 -55 -89 -68 -29 -6 -65 -17 -79 -25 -15 -8 -56 -14 -92 -14 -73 0 -94 -8
-80 -30 8 -13 47 -15 232 -15 191 -1 227 -3 253 -18 38 -21 45 -21 45 1 0 15
-58 62 -78 62 -4 0 -25 16 -46 35 -25 23 -36 40 -32 51 3 8 6 19 6 24 0 9 174
130 188 130 5 0 14 11 20 25 11 24 32 35 32 16 0 -5 10 -11 23 -15 16 -4 19
-8 9 -15 -10 -6 -4 -10 20 -16 43 -10 40 -9 63 -21 11 -6 39 -17 63 -24 29 -9
38 -16 30 -22 -8 -5 0 -8 22 -8 30 -1 33 -3 19 -13 -25 -19 -40 -55 -33 -81 4
-19 0 -28 -20 -41 -14 -10 -26 -23 -26 -31 0 -20 40 -41 81 -42 32 -1 36 1 32
18 -12 45 41 104 55 61 3 -8 0 -11 -6 -7 -19 12 -32 -27 -16 -49 20 -28 18
-32 -23 -40 -29 -5 -34 -9 -22 -16 15 -8 14 -13 -5 -53 -11 -25 -26 -45 -33
-46 -6 0 -18 -8 -25 -18 -7 -11 -24 -25 -38 -32 -14 -7 -29 -19 -33 -26 -4 -8
-13 -14 -20 -14 -7 0 -33 -11 -59 -25 -28 -15 -64 -25 -87 -25 -22 0 -42 -4
-46 -9 -3 -6 -27 -13 -53 -16 -26 -4 -63 -16 -82 -28 -32 -19 -52 -20 -261
-21 -193 -1 -230 1 -245 15 -11 9 -36 23 -56 33 -21 9 -38 21 -38 26 0 13
-101 70 -123 70 -19 0 -100 42 -127 65 -8 7 -26 16 -40 20 -14 4 -30 15 -36
23 -6 8 -28 15 -50 16 -27 1 -38 6 -36 15 1 7 -3 20 -10 29 -11 13 -10 15 10
10 12 -4 22 -3 22 2 0 12 -69 70 -84 70 -8 0 -19 7 -26 15 -7 8 -20 14 -29 13
-23 -4 -26 39 -4 64 18 21 18 21 -19 14 -37 -7 -38 -6 -38 23 0 27 3 29 38 29
20 0 53 3 73 7 29 6 37 3 43 -10 3 -10 1 -24 -5 -31 -16 -19 8 -18 57 2 36 15
37 17 19 30 -10 8 -23 14 -28 14 -4 0 -5 5 -2 10 3 6 -10 25 -29 44 -40 37
-49 64 -16 46 12 -7 48 -8 93 -5 42 4 93 2 122 -5 78 -19 119 -18 123 2 2 11
-5 18 -19 20 -21 3 -22 4 -6 20 13 13 33 16 97 14 44 -2 77 0 75 4 -3 4 10 10
28 13 17 3 59 11 93 16 33 6 71 16 85 23 38 20 120 16 151 -7z m228 -115 c0
-16 -42 -70 -54 -70 -26 0 -38 84 -14 92 14 5 68 -13 68 -22z m-1809 -1007 c7
-27 21 -66 31 -88 27 -62 23 -99 -19 -166 -35 -54 -63 -75 -63 -48 0 6 -8 23
-18 37 -19 27 -52 119 -52 144 0 8 13 29 30 48 16 19 29 40 30 47 0 15 33 73
41 73 4 0 12 -21 20 -47z m2499 -191 c0 -10 9 -24 20 -32 11 -8 20 -20 20 -26
0 -7 3 -14 8 -16 19 -8 39 -64 31 -85 -10 -28 -28 -32 -159 -36 -126 -5 -165
-14 -247 -55 -34 -18 -67 -32 -73 -32 -6 0 -32 15 -58 33 -26 17 -56 37 -66
42 -32 16 -29 30 11 53 38 22 131 67 168 81 11 5 31 14 45 20 41 19 226 17
259 -3 6 -4 18 -22 27 -41 9 -19 20 -35 25 -35 12 0 11 37 -1 45 -5 3 -10 17
-10 31 0 14 -6 27 -14 30 -11 4 -14 19 -7 42 4 11 21 -2 21 -16z m-62 -19
c-10 -2 -28 -2 -40 0 -13 2 -5 4 17 4 22 1 32 -1 23 -4z m297 -172 c3 -5 1
-12 -5 -16 -5 -3 -10 1 -10 9 0 18 6 21 15 7z m-41 -37 c3 -8 2 -12 -4 -9 -6
3 -10 10 -10 16 0 14 7 11 14 -7z m-1836 -166 c11 -24 29 -69 40 -100 l21 -57
-60 -58 c-67 -64 -79 -72 -79 -51 0 55 46 308 55 308 3 0 13 -19 23 -42z
m-208 -146 c0 -4 10 -18 23 -32 37 -40 81 -120 71 -130 -14 -14 -124 -40 -168
-40 -32 0 -45 7 -74 36 -19 19 -31 38 -28 41 3 4 6 2 6 -4 0 -12 47 -23 67
-16 7 3 13 11 13 19 0 7 7 17 16 22 12 6 15 18 12 36 -3 14 -1 26 5 26 23 0
-5 14 -40 20 l-38 7 45 10 c56 13 90 15 90 5z m347 -39 c12 -3 24 -12 28 -20
4 -13 -1 -14 -27 -9 -18 4 -34 11 -36 16 -2 5 -10 6 -18 3 -9 -3 -14 1 -14 12
0 13 5 16 23 10 12 -3 32 -9 44 -12z m73 -33 c13 -8 13 -10 -2 -10 -9 0 -20 5
-23 10 -8 13 5 13 25 0z m58 -55 c-2 -8 -37 -39 -78 -68 -85 -60 -78 -40 -65
-208 6 -72 5 -77 -15 -82 -13 -3 -54 12 -116 45 l-96 51 4 53 c3 29 10 60 18
68 11 14 15 12 31 -18 10 -18 29 -46 43 -61 14 -15 26 -36 26 -46 0 -11 4 -19
9 -19 6 0 18 -13 28 -30 9 -16 23 -30 30 -30 16 0 7 24 -32 80 -17 25 -37 56
-44 71 -7 14 -25 39 -42 57 -59 63 -34 92 106 116 55 10 118 21 140 25 22 5
44 9 48 10 5 0 7 -6 5 -14z m-375 -106 c0 -8 -7 -41 -14 -74 -12 -58 -14 -61
-58 -82 -74 -34 -175 -73 -179 -68 -8 7 232 245 243 242 5 -2 9 -10 8 -18z
m2140 -229 c122 -18 179 -31 252 -58 84 -32 108 -50 76 -59 -17 -4 -20 -10
-15 -27 4 -11 3 -18 -1 -14 -16 15 -35 -15 -36 -56 0 -22 -4 -50 -8 -61 -14
-36 -1 -53 57 -73 64 -21 86 -48 31 -39 -193 34 -306 33 -453 -3 -50 -12 -119
-37 -154 -56 -36 -19 -69 -34 -73 -34 -12 0 -140 -83 -165 -108 -36 -34 -94
-108 -94 -120 0 -6 -4 -12 -8 -14 -43 -18 -157 -253 -201 -413 -9 -33 -19 -65
-23 -70 -3 -6 -9 -27 -13 -48 -6 -30 -10 -35 -21 -26 -21 18 -20 -228 2 -279
10 -23 14 -59 12 -97 -1 -33 0 -64 3 -70 12 -20 19 -130 9 -145 -8 -13 -13
-13 -31 -2 -26 17 -136 25 -144 12 -3 -6 -24 -10 -46 -10 -26 0 -42 -5 -45
-15 -4 -10 -14 -13 -31 -9 -20 5 -30 0 -49 -21 -13 -16 -24 -24 -25 -19 0 5
-4 0 -9 -11 -7 -17 -9 -17 -9 -2 -1 9 -5 17 -11 17 -5 0 -10 11 -10 24 0 13
-6 26 -13 29 -20 7 -43 96 -30 115 7 11 4 21 -8 33 -10 10 -21 35 -24 56 -3
21 -10 46 -16 55 -5 10 -8 55 -8 100 1 54 4 72 8 53 l7 -30 7 25 c4 14 7 36 8
50 0 25 1 25 11 3 6 -12 18 -23 28 -26 23 -6 100 28 101 45 0 7 2 24 4 38 4
29 -33 198 -45 205 -4 3 -14 -2 -21 -11 -7 -9 -23 -20 -36 -25 -18 -7 -23 -16
-23 -46 0 -21 -4 -44 -9 -51 -11 -19 -21 128 -10 150 5 9 9 34 9 55 0 45 23
150 57 253 24 75 134 296 163 328 8 9 40 46 70 82 187 222 393 347 675 411 92
20 224 24 328 9z m437 -140 c0 -5 -12 -10 -27 -10 -22 0 -25 2 -13 10 20 13
40 13 40 0z m282 -173 c12 -9 14 -17 7 -28 -8 -12 -12 -11 -24 5 -26 34 -16
47 17 23z m61 -47 c9 -11 14 -26 11 -33 -3 -9 10 -20 40 -31 32 -12 72 -45
145 -121 56 -58 101 -110 101 -117 0 -6 7 -19 15 -28 20 -22 33 -192 13 -172
-18 18 -55 15 -70 -7 -14 -20 -15 -20 -54 1 -23 12 -64 51 -99 95 -33 42 -73
90 -90 107 -56 60 -57 62 -27 60 15 0 37 6 49 14 20 12 21 16 8 29 -8 8 -15
22 -16 31 -1 38 -9 56 -35 83 -15 15 -24 34 -21 42 3 8 3 18 -1 21 -11 11 -9
46 2 46 7 0 19 -9 29 -20z m-3896 -45 c-4 -8 -11 -15 -17 -15 -6 0 -6 7 2 20
14 22 24 19 15 -5z m3563 -5 c0 -6 -11 -8 -27 -4 -40 10 -41 14 -5 14 18 0 32
-5 32 -10z m65 -30 c13 -5 14 -9 5 -9 -8 0 -24 4 -35 9 -13 5 -14 9 -5 9 8 0
24 -4 35 -9z m-3622 -50 c3 -11 1 -23 -4 -26 -5 -3 -9 6 -9 20 0 31 6 34 13 6z
m41 -13 c4 -19 3 -26 -4 -22 -5 3 -10 18 -10 32 0 32 5 28 14 -10z m13 -59
c-3 -8 -6 -5 -6 6 -1 11 2 17 5 13 3 -3 4 -12 1 -19z m702 -150 c-1 -39 37
-198 51 -212 6 -6 10 -28 10 -51 0 -22 9 -68 20 -102 10 -34 22 -86 26 -115
l7 -53 -25 30 -26 30 -31 -33 c-39 -40 -56 -42 -36 -2 17 32 20 70 6 70 -5 0
-12 -6 -14 -12 -3 -7 -6 1 -6 19 -1 17 -12 55 -26 85 -14 29 -28 69 -31 88 -4
19 -10 40 -15 45 -4 6 -11 35 -15 65 -4 30 -11 61 -17 68 -7 9 -2 21 18 42 16
17 35 30 42 30 8 0 11 5 8 10 -3 6 3 10 14 10 12 0 21 5 21 10 0 6 5 10 10 10
6 0 10 -15 9 -32z m111 -64 c0 -7 11 -47 25 -89 23 -73 34 -206 14 -174 -5 8
-9 23 -9 34 0 11 -12 65 -26 120 -15 55 -29 118 -31 140 l-4 40 15 -29 c9 -15
16 -34 16 -42z m-720 -38 c0 -3 -4 -8 -10 -11 -5 -3 -10 -1 -10 4 0 6 5 11 10
11 6 0 10 -2 10 -4z m3229 -131 c22 -30 41 -58 41 -63 0 -5 18 -37 40 -71 22
-34 40 -68 40 -76 0 -8 3 -15 8 -15 4 0 18 -24 32 -53 14 -28 29 -55 34 -58 5
-4 6 -14 3 -23 -4 -9 -3 -15 1 -14 4 1 20 -4 35 -10 16 -7 39 -12 51 -12 39 0
37 -12 -8 -41 -47 -32 -71 -30 -82 4 -3 12 -17 36 -30 54 -13 17 -24 39 -24
48 0 9 -4 13 -10 10 -5 -3 -10 3 -10 15 0 20 -6 29 -39 66 -22 25 -46 13 -43
-21 2 -17 6 -61 9 -100 2 -38 8 -74 13 -80 4 -5 13 -27 19 -47 7 -21 17 -38
22 -38 10 0 12 -31 3 -55 -10 -24 -62 -47 -93 -40 -19 4 -32 1 -41 -10 -7 -8
-21 -15 -30 -15 -11 0 -26 -15 -37 -37 -10 -21 -26 -40 -36 -41 -32 -6 -88 8
-81 20 4 6 1 9 -7 6 -23 -8 -77 11 -143 50 -34 20 -83 48 -109 62 -26 13 -47
30 -47 37 0 12 76 37 210 67 122 27 220 59 221 70 0 6 2 22 3 36 2 14 8 97 15
185 12 170 20 245 25 245 2 0 22 -25 45 -55z m-2434 -195 c5 -64 5 -65 -9 -30
-17 41 -21 119 -6 104 5 -5 12 -39 15 -74z m-887 54 c12 -8 20 -20 17 -25 -4
-5 -8 -18 -10 -28 -6 -30 -46 -80 -83 -103 -26 -16 -35 -18 -48 -8 -15 13 -10
49 9 61 5 4 7 14 4 23 -4 11 7 30 33 56 45 45 47 46 78 24z m787 -174 c14 -5
30 -21 35 -36 15 -38 58 -255 70 -354 6 -47 17 -114 25 -150 8 -36 16 -105 18
-155 l4 -90 -14 55 c-8 30 -21 87 -29 125 -8 39 -18 77 -23 85 -5 9 -16 56
-25 105 -10 50 -21 106 -26 125 l-8 35 -2 -35 c-2 -33 -3 -33 -10 -10 -4 14
-8 39 -9 57 -1 17 -8 38 -16 47 -8 8 -15 28 -15 45 0 16 -5 33 -11 37 -6 3 -9
15 -6 25 3 11 -1 23 -9 27 -15 8 -15 37 -1 60 10 15 18 15 52 2z m-648 -26
c-3 -3 -12 -4 -19 -1 -8 3 -5 6 6 6 11 1 17 -2 13 -5z m1620 -86 c-2 -13 -4
-3 -4 22 0 25 2 35 4 23 2 -13 2 -33 0 -45z m-1920 37 c20 -14 21 -19 11 -43
-7 -15 -20 -39 -30 -54 -10 -14 -18 -33 -18 -42 0 -9 -8 -16 -20 -16 -13 0
-20 -7 -20 -20 0 -11 -7 -20 -15 -20 -8 0 -15 -4 -15 -9 0 -6 -11 -22 -25 -37
-14 -15 -25 -31 -25 -37 0 -5 -11 -22 -25 -39 l-25 -30 0 26 c0 14 8 30 19 35
12 7 20 26 24 55 4 27 23 73 47 112 22 36 40 71 40 77 0 11 39 57 50 57 3 0
15 -7 27 -15z m66 -179 c-10 -13 -20 -22 -22 -20 -4 4 29 44 36 44 2 0 -4 -11
-14 -24z m3805 -68 c34 -34 -22 -71 -64 -43 -26 17 -31 40 -11 48 23 10 63 7
75 -5z m36 -192 c17 -56 19 -68 17 -110 -1 -26 -4 -28 -31 -24 -16 2 -31 0
-33 -6 -3 -6 -8 -7 -13 -3 -5 5 -1 13 8 18 18 10 18 25 -1 123 -6 35 -6 55 2
68 11 17 13 17 24 2 6 -9 19 -39 27 -68z m-2723 -159 c-10 -9 -11 -8 -5 6 3
10 9 15 12 12 3 -3 0 -11 -7 -18z m73 -434 c-4 -10 -7 -29 -7 -42 1 -18 -1
-20 -8 -10 -10 17 -12 53 -2 62 13 14 25 7 17 -10z"/>
<path d="M3928 6253 c7 -3 16 -2 19 1 4 3 -2 6 -13 5 -11 0 -14 -3 -6 -6z"/>
<path d="M4063 6241 c10 -4 18 -11 17 -16 0 -6 11 -11 26 -13 21 -3 25 0 20
13 -3 9 -6 19 -6 21 0 2 -17 4 -37 3 -26 0 -32 -3 -20 -8z"/>
<path d="M4010 6193 c0 -7 72 -35 77 -29 1 1 -1 7 -5 13 -9 13 -72 28 -72 16z"/>
<path d="M4106 6174 c-9 -24 -7 -28 9 -14 17 14 20 30 6 30 -5 0 -12 -7 -15
-16z"/>
<path d="M3768 6163 c7 -3 16 -2 19 1 4 3 -2 6 -13 5 -11 0 -14 -3 -6 -6z"/>
<path d="M3738 6143 c7 -3 16 -2 19 1 4 3 -2 6 -13 5 -11 0 -14 -3 -6 -6z"/>
<path d="M4045 6117 c22 -12 19 -47 -4 -47 -11 0 -23 -5 -26 -10 -4 -6 -11 -8
-16 -5 -5 4 -9 2 -9 -4 0 -8 75 -27 93 -23 4 1 7 -3 7 -10 0 -6 3 -9 6 -5 3 3
8 30 11 59 l4 53 -40 0 c-28 1 -36 -2 -26 -8z"/>
<path d="M3658 6083 c7 -3 16 -2 19 1 4 3 -2 6 -13 5 -11 0 -14 -3 -6 -6z"/>
<path d="M3586 6031 c-4 -7 -5 -15 -2 -18 9 -9 19 4 14 18 -4 11 -6 11 -12 0z"/>
<path d="M4023 5964 c0 -29 13 -32 20 -5 3 11 -1 22 -8 25 -8 3 -12 -4 -12
-20z"/>
<path d="M3894 5876 c20 -9 25 -16 16 -21 -9 -6 -9 -9 1 -16 11 -7 11 -11 1
-17 -23 -16 21 -44 64 -40 36 3 37 4 20 21 -10 9 -13 17 -7 17 6 0 11 8 11 18
-1 22 -61 52 -103 51 l-32 -1 29 -12z"/>
<path d="M3835 5840 c-3 -5 1 -10 9 -10 8 0 18 5 21 10 3 6 -1 10 -9 10 -8 0
-18 -4 -21 -10z"/>
<path d="M3780 5782 c0 -5 11 -17 24 -25 17 -12 22 -22 19 -41 -4 -21 0 -28
22 -36 39 -15 47 -13 40 11 -5 16 -3 20 11 17 11 -2 20 4 22 15 2 10 -3 17
-13 17 -9 0 -28 9 -43 20 -32 23 -82 37 -82 22z"/>
<path d="M3743 5735 c-9 -24 1 -27 15 -5 8 13 8 20 2 20 -6 0 -13 -7 -17 -15z"/>
<path d="M3116 5724 c-10 -37 17 -66 39 -44 12 12 12 19 2 39 -17 35 -33 36
-41 5z"/>
<path d="M3238 5711 c9 -16 20 -28 23 -25 11 6 -14 54 -28 54 -8 0 -7 -9 5
-29z"/>
<path d="M3300 5591 c0 -5 5 -13 10 -16 6 -3 10 -2 10 4 0 5 -4 13 -10 16 -5
3 -10 2 -10 -4z"/>
<path d="M2018 5653 c7 -3 16 -2 19 1 4 3 -2 6 -13 5 -11 0 -14 -3 -6 -6z"/>
<path d="M3563 4903 c9 -2 23 -2 30 0 6 3 -1 5 -18 5 -16 0 -22 -2 -12 -5z"/>
<path d="M3628 4903 c7 -3 16 -2 19 1 4 3 -2 6 -13 5 -11 0 -14 -3 -6 -6z"/>
<path d="M2740 4731 c0 -6 5 -13 10 -16 6 -3 10 1 10 9 0 9 -4 16 -10 16 -5 0
-10 -4 -10 -9z"/>
<path d="M2450 4673 c0 -4 9 -14 21 -21 18 -12 20 -11 17 5 -3 17 -38 32 -38
16z"/>
<path d="M2200 4596 c0 -24 25 -36 74 -36 59 0 54 8 -19 31 -40 12 -55 14 -55
5z"/>
<path d="M2795 4430 c-3 -5 1 -10 10 -10 9 0 13 5 10 10 -3 6 -8 10 -10 10 -2
0 -7 -4 -10 -10z"/>
<path d="M3376 4425 c-18 -14 -17 -15 22 -15 31 0 42 4 42 15 0 19 -39 19 -64
0z"/>
<path d="M3314 4374 c-15 -22 -15 -27 -4 -34 16 -10 43 7 34 21 -3 5 2 12 10
15 9 3 13 10 10 15 -10 17 -34 9 -50 -17z"/>
<path d="M2653 4374 c-37 -18 -42 -36 -15 -56 9 -7 17 -22 17 -33 0 -15 8 -21
33 -23 17 -2 32 -7 32 -12 0 -14 40 -22 54 -11 14 12 36 -4 33 -24 -1 -5 10
-11 26 -13 24 -3 27 0 28 25 1 15 1 34 0 41 -2 14 8 15 28 3 10 -6 10 -13 3
-28 -9 -15 -7 -22 9 -33 10 -8 19 -20 19 -27 0 -7 6 -13 13 -13 17 0 49 34 41
43 -6 6 60 27 88 27 9 0 20 5 23 10 3 6 21 10 40 10 25 0 35 5 40 20 3 11 9
20 13 21 44 5 66 13 82 29 11 11 20 22 20 25 0 14 -56 2 -116 -26 -38 -16 -88
-32 -112 -34 -24 -3 -48 -7 -52 -10 -5 -3 -29 6 -54 20 -25 14 -50 25 -56 25
-6 0 -29 12 -51 27 -50 33 -137 41 -186 17z m350 -121 c-7 -2 -19 -2 -25 0 -7
3 -2 5 12 5 14 0 19 -2 13 -5z"/>
<path d="M1270 3660 c0 -5 5 -10 11 -10 5 0 7 5 4 10 -3 6 -8 10 -11 10 -2 0
-4 -4 -4 -10z"/>
<path d="M3630 3458 c0 -18 27 -44 37 -34 4 4 -3 16 -15 29 -18 17 -22 18 -22
5z"/>
<path d="M3160 1166 c0 -17 14 -29 23 -20 8 8 -3 34 -14 34 -5 0 -9 -6 -9 -14z"/>
<path d="M2978 833 c7 -3 16 -2 19 1 4 3 -2 6 -13 5 -11 0 -14 -3 -6 -6z"/>
<path d="M1920 6370 c0 -12 17 -12 45 0 17 7 15 9 -12 9 -18 1 -33 -3 -33 -9z"/>
<path d="M1841 6249 c-11 -13 -21 -26 -21 -30 0 -15 22 -21 43 -11 12 5 37 15
55 22 17 7 32 16 32 21 0 5 -1 9 -2 10 -61 12 -87 9 -107 -12z"/>
<path d="M1847 6145 c-15 -14 -27 -34 -27 -44 0 -11 -6 -21 -12 -24 -11 -4
-15 -38 -9 -75 1 -10 107 -10 117 1 4 4 -1 7 -12 7 -15 0 -16 2 -5 9 7 5 10
14 7 20 -5 7 3 11 20 11 39 0 17 19 -26 23 -44 3 -50 25 -11 38 17 6 31 15 31
20 0 5 15 9 33 10 29 0 27 2 -18 14 -27 8 -52 14 -55 15 -3 0 -18 -11 -33 -25z"/>
<path d="M1740 5976 c0 -8 5 -18 10 -21 6 -3 10 1 10 9 0 8 -4 18 -10 21 -5 3
-10 -1 -10 -9z"/>
<path d="M1847 5937 c10 -12 21 -24 24 -27 3 -3 5 -17 5 -32 -2 -27 0 -28 46
-28 26 0 50 5 54 11 4 8 28 10 68 6 33 -2 52 -3 41 0 -11 3 -27 11 -35 18 -8
6 -44 18 -80 25 -36 7 -72 18 -80 25 -8 7 -26 15 -38 18 -24 6 -24 5 -5 -16z"/>
<path d="M1742 5908 c-7 -7 -12 -20 -12 -29 0 -10 -4 -20 -9 -23 -16 -10 2
-106 21 -106 5 0 6 -5 2 -11 -4 -7 -1 -10 7 -7 17 6 32 120 19 153 -5 12 -6
26 -3 29 4 3 2 6 -3 6 -6 0 -15 -5 -22 -12z"/>
</g>
</svg>
